<svg xmlns="http://www.w3.org/2000/svg" viewBox="-95.17277131721376 -108.56826744295995 215.70373623208712 191.47535419947843" width="862.8149449283485" height="765.9014167979137" style="background: #0f172a;">
  <g stroke-linecap="round" stroke-linejoin="round">
  <!-- Reference Contours -->
  <path d="M 10.679902681118634 -1.4941310261456824 L 11.77853963356264 2.261835824230103 L 11.849910754451525 5.365355531191052 L 12.172890155412562 9.409884759584823 L 11.387923182112615 12.407963321082345 L 8.597395253004109 16.064543515813842 L 5.92291116988595 19.753374418933372 L 2.036084755825745 21.578445603187916 L -3.525051003250616 23.327316339100612 L -8.469064670053866 24.212618481912244 L -14.086831018637987 22.61408187659369 L -20.448526678023306 20.54006976226457 L -25.206603949540163 17.19534418494356 L -29.7221675031649 11.374761238854207 L -33.8236361072694 5.374415468995716 L -35.30525604604232 -1.5478907747843398 L -35.765355523711676 -10.158835530838893 L -34.97577310454902 -17.9352692071386 L -31.070958267365768 -25.63660235748174 L -26.021557556399777 -33.702167831423566 L -19.668833935804038 -39.56602825470883 L -10.59401556759688 -44.18029562582947 L -1.158864316600055 -47.85520110454842 L 8.731390409720209 -48.2227918363405 L 20.08982716473519 -46.625802870309194 L 30.296216860626018 -43.435887496973486 L 39.53102034290698 -36.678011213650336 L 48.57925691547761 -28.2022614220707 L 54.81065503396961 -18.5246777861513 L 58.727030403768666 -6.121450332282162 L 61.121102513997 6.69020605696003 L 59.62115480259754 19.33129137114504 L 55.26468784126522 32.98718734705111 L 49.032017055125294 45.07956892510606 L 38.98346431343755 55.19493567575756 L 26.77552588729425 64.4208188100421 L 13.601638292345445 70.2210739073237 L -2.04973281883202 72.6330489770796 L -18.011200567931144 72.90708675651847 L -33.04023936343954 68.82893055447845 L -48.40928014175035 61.10165014476382 L -61.71787457970145 51.29158494853411 L -71.97762872123468 37.64065490756135 L -80.5190466233679 21.55317040708174 L -85.05487981117315 4.867029313811613 L -85.17277131721376 -13.79766118891608 L -82.53268062529517 -32.51786428032388 L -75.23352679447015 -49.43418109804607 L -63.63767371940724 -65.81515246565625 L -49.84531284805793 -79.56416670850652 L -32.419723199779995 -89.17089235562604 L -12.472484869091716 -96.13729075992082 L 7.580611533287316 -98.56826744295995 L 28.8734078061124 -95.64562769560406 L 49.805988698531905 -89.3714951347344 L 67.98308874402044 -78.30011773640715 L 84.57871811280495 -62.470848408795014 L 97.9097771027877 -44.439507934055506 L 106.02883405225293 -23.216315768086076 L 110.53096491487338 0.3999999999999459 Z" fill="none" stroke="#fff" stroke-width="2" opacity="1" />
  </g>
</svg>